<svg xmlns="http://www.w3.org/2000/svg" viewBox="0 0 520 400" width="520" height="400">
  <rect width="520" height="400" fill="#0f1115"/>
  <rect x="20" y="60" width="480" height="320" fill="#1a1d24" rx="6" stroke="#2a2f38"/>
  <rect x="20" y="60" width="480" height="28" fill="#232830" rx="6"/>
  <rect x="20" y="82" width="480" height="6" fill="#232830"/>
  <circle cx="32" cy="74" r="4" fill="#ef4444"/>
  <circle cx="46" cy="74" r="4" fill="#f59e0b"/>
  <circle cx="60" cy="74" r="4" fill="#22c55e"/>
  <text x="80" y="79" fill="#f59e0b" font-family="Menlo,monospace" font-size="13" font-weight="600">worker-2 — research Anthropic pricing</text>
  <text x="30" y="115" fill="#22c55e" font-family="Menlo,monospace" font-size="12">✓ start touched  ·  4 min ago</text>
  <text x="30" y="138" fill="#e5e7eb" font-family="Menlo,monospace" font-size="12">Results so far (appended to results/worker-2.md):</text>
  <text x="30" y="160" fill="#e5e7eb" font-family="Menlo,monospace" font-size="11">## Anthropic</text>
  <text x="30" y="178" fill="#e5e7eb" font-family="Menlo,monospace" font-size="11">  - Claude Sonnet 4.5: $3 / $15 per 1M tok</text>
  <text x="30" y="196" fill="#e5e7eb" font-family="Menlo,monospace" font-size="11">  - Claude Haiku 4.5: $1 / $5 per 1M tok</text>
  <text x="30" y="214" fill="#e5e7eb" font-family="Menlo,monospace" font-size="11">  - context: 200K (Sonnet), 200K (Haiku)</text>
  <text x="30" y="240" fill="#9ca3af" font-family="Menlo,monospace" font-size="11">Next: check batch discount + free tier</text>
  <text x="30" y="262" fill="#f59e0b" font-family="Menlo,monospace" font-size="12">⏳ final not yet touched</text>
  <rect x="20" y="350" width="480" height="20" fill="#1f242c"/>
  <text x="30" y="365" fill="#9aa4b2" font-family="Menlo,monospace" font-size="11">⚕ MiniMax-M3</text>
  <rect x="380" y="358" width="100" height="6" fill="#2a2f38" rx="3"/>
  <rect x="380" y="358" width="30" height="6" fill="#f59e0b" rx="3"/>
  <text x="486" y="365" fill="#9aa4b2" font-family="Menlo,monospace" font-size="11">30%</text>
</svg>
