<svg xmlns="http://www.w3.org/2000/svg" viewBox="0 0 520 400" width="520" height="400">
  <rect width="520" height="400" fill="#0f1115"/>
  <rect x="20" y="60" width="480" height="320" fill="#1a1d24" rx="6" stroke="#2a2f38"/>
  <rect x="20" y="60" width="480" height="28" fill="#232830" rx="6"/>
  <rect x="20" y="82" width="480" height="6" fill="#232830"/>
  <circle cx="32" cy="74" r="4" fill="#ef4444"/>
  <circle cx="46" cy="74" r="4" fill="#f59e0b"/>
  <circle cx="60" cy="74" r="4" fill="#22c55e"/>
  <text x="80" y="79" fill="#f59e0b" font-family="Menlo,monospace" font-size="13" font-weight="600">worker-1 — research OpenAI pricing</text>
  <text x="30" y="115" fill="#e5e7eb" font-family="Menlo,monospace" font-size="12">1. touch done/worker-1-start</text>
  <text x="30" y="138" fill="#e5e7eb" font-family="Menlo,monospace" font-size="12">2. read task.md</text>
  <text x="30" y="161" fill="#e5e7eb" font-family="Menlo,monospace" font-size="12">3. do work: fetch + summarize</text>
  <text x="30" y="184" fill="#e5e7eb" font-family="Menlo,monospace" font-size="12">4. append results/worker-1.md</text>
  <text x="30" y="207" fill="#e5e7eb" font-family="Menlo,monospace" font-size="12">5. touch done/worker-1-final</text>
  <text x="30" y="245" fill="#22c55e" font-family="Menlo,monospace" font-size="12">✓ start touched  ·  2 min ago</text>
  <text x="30" y="270" fill="#9ca3af" font-family="Menlo,monospace" font-size="11">  currently: scraping platform.openai.com/docs/pricing</text>
  <text x="30" y="290" fill="#9ca3af" font-family="Menlo,monospace" font-size="11">  next: extract input/output $ per 1M tokens</text>
  <rect x="20" y="350" width="480" height="20" fill="#1f242c"/>
  <text x="30" y="365" fill="#9aa4b2" font-family="Menlo,monospace" font-size="11">⚕ MiniMax-M3</text>
  <rect x="380" y="358" width="100" height="6" fill="#2a2f38" rx="3"/>
  <rect x="380" y="358" width="6" height="6" fill="#f59e0b" rx="3"/>
  <text x="486" y="365" fill="#9aa4b2" font-family="Menlo,monospace" font-size="11">6%</text>
</svg>
